PathFileType	4	(X/Y/Z)	SUB01_off_static_1_1707858583308
DataRate	CameraRate	NumFrames	NumMarkers	Units	OrigDataRate	OrigDataStartFrame	OrigNumFrames
150.00	150.00	       4	71	mm  	150.00	38	       150
Frame#	Time	CLAV			STRN			C7			T10			RSHO			LSHO			RUPA			REL			REM			RFRA			RWL			RWM			LUPA			LEL			LEM			LFRA			LWL			LWM			R.ASIS			L.ASIS			R.PSIS			L.PSIS			R.GTR			R.Knee			R.HF			R.TT			R.Ankle			R.Heel			R.MT1			R.MT5			L.GTR			L.Knee			L.HF			L.TT			L.Ankle			L.Heel			L.MT1			L.MT5			R.Knee.Medial			R.Ankle.Medial			R.MT2			L.Knee.Medial			L.Ankle.Medial			L.MT2			V_Mid_ASIS			V_Mid_PSIS			V_Pelvis_Origin			V_R.Hip_JC			V_R.Knee_JC_Static			V_R.TT			V_R.Ankle_JC			V_L.Hip_JC			V_Mid_Hip			V_R.MT2			V_R.Knee.Medial			V_R.Ankle.Medial			V_R.TT			V_L.Knee_JC_Static			V_L.TT			V_L.Ankle_JC			V_L.MT2			V_L.Knee.Medial			V_L.Ankle.Medial			V_R.Knee_JC2			V_R.Knee2			V_R.Knee_JC_Dynamic			V_R.Ankle_JC_Dynamic			V_L.Knee_JC_Dynamic			V_L.Ankle_JC_Dynamic			V_R.TT2			V_L.TT2			
		X1	Y1	Z1	X2	Y2	Z2	X3	Y3	Z3	X4	Y4	Z4	X5	Y5	Z5	X6	Y6	Z6	X7	Y7	Z7	X8	Y8	Z8	X9	Y9	Z9	X10	Y10	Z10	X11	Y11	Z11	X12	Y12	Z12	X13	Y13	Z13	X14	Y14	Z14	X15	Y15	Z15	X16	Y16	Z16	X17	Y17	Z17	X18	Y18	Z18	X19	Y19	Z19	X20	Y20	Z20	X21	Y21	Z21	X22	Y22	Z22	X23	Y23	Z23	X24	Y24	Z24	X25	Y25	Z25	X26	Y26	Z26	X27	Y27	Z27	X28	Y28	Z28	X29	Y29	Z29	X30	Y30	Z30	X31	Y31	Z31	X32	Y32	Z32	X33	Y33	Z33	X34	Y34	Z34	X35	Y35	Z35	X36	Y36	Z36	X37	Y37	Z37	X38	Y38	Z38	X39	Y39	Z39	X40	Y40	Z40	X41	Y41	Z41	X42	Y42	Z42	X43	Y43	Z43	X44	Y44	Z44	X45	Y45	Z45	X46	Y46	Z46	X47	Y47	Z47	X48	Y48	Z48	X49	Y49	Z49	X50	Y50	Z50	X51	Y51	Z51	X52	Y52	Z52	X53	Y53	Z53	X54	Y54	Z54	X55	Y55	Z55	X56	Y56	Z56	X57	Y57	Z57	X58	Y58	Z58	X59	Y59	Z59	X60	Y60	Z60	X61	Y61	Z61	X62	Y62	Z62	X63	Y63	Z63	X64	Y64	Z64	X65	Y65	Z65	X66	Y66	Z66	X67	Y67	Z67	X68	Y68	Z68	X69	Y69	Z69	X70	Y70	Z70	X71	Y71	Z71	
38	0.246667	967.790283	1390.533569	588.042053	973.402039	1230.965698	581.401733	834.081360	1488.558105	587.848389	739.589050	1233.280762	565.008972	837.723938	1480.649536	732.821777	870.818176	1495.176758	443.254456	873.212463	1461.739624	912.126892	905.873047	1472.226807	1005.807983	934.658508	1372.049561	1016.363647	941.266663	1472.515625	1172.797729	1016.665405	1434.202881	1251.711670	951.924438	1464.229614	1271.557251	940.597961	1478.901001	276.339508	994.607300	1490.136475	167.224548	1006.411621	1388.076538	153.037125	1025.661621	1477.221069	23.182899	1124.910522	1433.066284	-43.133080	1060.764648	1460.674927	-70.606216	960.623657	943.352356	679.123779	959.107361	935.542847	471.332733	759.435547	1010.024658	604.750061	765.155212	1008.671082	525.944580	857.832397	883.180725	753.433533	861.858398	512.417236	730.597778	863.386597	441.101379	732.437195	906.207031	398.012665	681.468079	781.591064	93.234833	725.004761	724.830627	49.787212	681.580139	927.057129	43.083126	676.641907	888.882141	30.969763	761.608215	873.397522	882.756042	393.987610	868.441528	497.364777	433.902740	874.527466	438.935822	436.924957	916.419495	393.429535	483.885742	781.270386	76.693840	462.529297	733.305176	53.604568	512.949097	942.531555	40.132774	497.951477	889.553833	33.118595	422.908295	869.496277	501.916992	601.094849	807.896729	94.647224	640.745972	928.915405	38.827305	716.009583	889.272034	499.657288	563.646851	817.578491	80.122574	546.256592	932.450745	38.789581	459.084564	0.000000	0.000000	0.000000	0.000000	0.000000	0.000000	0.000000	0.000000	0.000000	0.000000	0.000000	0.000000	0.000000	0.000000	0.000000	0.000000	0.000000	0.000000	0.000000	0.000000	0.000000	0.000000	0.000000	0.000000	0.000000	0.000000	0.000000	0.000000	0.000000	0.000000	0.000000	0.000000	0.000000	0.000000	0.000000	0.000000	0.000000	0.000000	0.000000	0.000000	0.000000	0.000000	0.000000	0.000000	0.000000	0.000000	0.000000	0.000000	0.000000	0.000000	0.000000	0.000000	0.000000	0.000000	0.000000	0.000000	0.000000	0.000000	0.000000	0.000000	0.000000	0.000000	0.000000	0.000000	0.000000	0.000000	0.000000	0.000000	0.000000	0.000000	0.000000	0.000000	0.000000	0.000000	0.000000	0.000000	0.000000	0.000000	0.000000	0.000000	0.000000	
39	0.253333	967.838989	1390.496704	588.041016	973.426758	1230.933472	581.398010	834.147583	1488.558472	587.855103	739.620850	1233.290894	565.018616	837.823486	1480.635376	732.824951	870.891174	1495.177002	443.273010	873.292053	1461.741699	912.125183	905.957642	1472.216309	1005.813171	934.709290	1372.034790	1016.372925	941.316101	1472.505981	1172.806519	1016.696228	1434.166016	1251.731079	951.968994	1464.216553	1271.568237	940.682556	1478.922852	276.369812	994.684448	1490.154053	167.244858	1006.418640	1388.096191	153.023636	1025.749023	1477.270142	23.208788	1124.977173	1433.077393	-43.114021	1060.852661	1460.742188	-70.586746	960.641846	943.337524	679.120605	959.111267	935.529175	471.327698	759.448303	1010.028442	604.759888	765.162109	1008.668884	525.952881	857.859558	883.178894	753.433289	861.872986	512.415405	730.600525	863.398682	441.099854	732.439026	906.220032	398.009979	681.465881	781.592407	93.235008	725.006226	724.830078	49.787113	681.581909	927.056885	43.083691	676.641846	888.882751	30.970360	761.608826	873.393921	882.745544	393.989349	868.466370	497.358093	433.904999	874.552368	438.930267	436.927521	916.441528	393.420258	483.887390	781.270081	76.694313	462.532654	733.306091	53.603271	512.954407	942.531311	40.133530	497.951355	889.552673	33.119694	422.909058	869.499573	501.919403	601.097595	807.897766	94.647484	640.746887	928.915894	38.828102	716.009827	889.296875	499.650146	563.649414	817.580811	80.119957	546.259644	932.449768	38.790112	459.085205	0.000000	0.000000	0.000000	0.000000	0.000000	0.000000	0.000000	0.000000	0.000000	0.000000	0.000000	0.000000	0.000000	0.000000	0.000000	0.000000	0.000000	0.000000	0.000000	0.000000	0.000000	0.000000	0.000000	0.000000	0.000000	0.000000	0.000000	0.000000	0.000000	0.000000	0.000000	0.000000	0.000000	0.000000	0.000000	0.000000	0.000000	0.000000	0.000000	0.000000	0.000000	0.000000	0.000000	0.000000	0.000000	0.000000	0.000000	0.000000	0.000000	0.000000	0.000000	0.000000	0.000000	0.000000	0.000000	0.000000	0.000000	0.000000	0.000000	0.000000	0.000000	0.000000	0.000000	0.000000	0.000000	0.000000	0.000000	0.000000	0.000000	0.000000	0.000000	0.000000	0.000000	0.000000	0.000000	0.000000	0.000000	0.000000	0.000000	0.000000	0.000000	
40	0.260000	967.884888	1390.458008	588.041138	973.449951	1230.900879	581.393494	834.213135	1488.558105	587.862000	739.650879	1233.299927	565.027954	837.918884	1480.620728	732.827942	870.961975	1495.177979	443.293915	873.362915	1461.744629	912.123962	906.037781	1472.207886	1005.819153	934.765625	1372.024658	1016.380737	941.366821	1472.502319	1172.814209	1016.729431	1434.135010	1251.750000	952.014648	1464.210938	1271.576660	940.766479	1478.950439	276.403168	994.757874	1490.182861	167.265106	1006.433838	1388.127197	153.014877	1025.829346	1477.325928	23.233904	1125.038452	1433.101563	-43.096291	1060.933838	1460.817383	-70.568497	960.656860	943.322998	679.120728	959.115784	935.514832	471.325195	759.459473	1010.028931	604.768799	765.169067	1008.663818	525.959961	857.881775	883.176270	753.433105	861.888794	512.412842	730.603577	863.411926	441.097626	732.441101	906.234436	398.006287	681.464172	781.593811	93.234795	725.007629	724.829468	49.786831	681.583801	927.056702	43.084080	676.641785	888.883240	30.970787	761.609497	873.393921	882.733643	393.991211	868.499878	497.350159	433.907806	874.585022	438.923431	436.930511	916.469116	393.409485	483.890076	781.270874	76.695175	462.535950	733.307312	53.602528	512.959473	942.531372	40.133945	497.951721	889.551758	33.120979	422.910309	869.506104	501.920685	601.100647	807.899536	94.647202	640.747681	928.916321	38.828720	716.010193	889.327881	499.641052	563.653992	817.583313	80.117409	546.263000	932.449158	38.790562	459.086212	0.000000	0.000000	0.000000	0.000000	0.000000	0.000000	0.000000	0.000000	0.000000	0.000000	0.000000	0.000000	0.000000	0.000000	0.000000	0.000000	0.000000	0.000000	0.000000	0.000000	0.000000	0.000000	0.000000	0.000000	0.000000	0.000000	0.000000	0.000000	0.000000	0.000000	0.000000	0.000000	0.000000	0.000000	0.000000	0.000000	0.000000	0.000000	0.000000	0.000000	0.000000	0.000000	0.000000	0.000000	0.000000	0.000000	0.000000	0.000000	0.000000	0.000000	0.000000	0.000000	0.000000	0.000000	0.000000	0.000000	0.000000	0.000000	0.000000	0.000000	0.000000	0.000000	0.000000	0.000000	0.000000	0.000000	0.000000	0.000000	0.000000	0.000000	0.000000	0.000000	0.000000	0.000000	0.000000	0.000000	0.000000	0.000000	0.000000	0.000000	0.000000	
41	0.266667	967.927429	1390.418701	588.042480	973.471985	1230.869019	581.388794	834.277039	1488.557007	587.869080	739.679016	1233.307495	565.036987	838.007935	1480.606079	732.830994	871.028870	1495.179321	443.316162	873.422241	1461.748169	912.123657	906.112122	1472.200806	1005.825867	934.826416	1372.018433	1016.387329	941.419067	1472.503540	1172.820923	1016.765808	1434.109131	1251.768188	952.061951	1464.211670	1271.582642	940.847595	1478.981689	276.437683	994.826965	1490.220459	167.284927	1006.459900	1388.167236	153.012238	1025.900879	1477.384644	23.257547	1125.093628	1433.136597	-43.080986	1061.005859	1460.895142	-70.551857	960.669128	943.308716	679.124573	959.121643	935.500427	471.325714	759.469360	1010.026306	604.776611	765.176636	1008.656433	525.965698	857.898987	883.172729	753.433289	861.905273	512.409424	730.606750	863.425903	441.094635	732.443542	906.249817	398.001526	681.463257	781.595093	93.234146	725.008850	724.828796	49.786331	681.585632	927.056702	43.084263	676.641846	888.883667	30.971045	761.610168	873.398315	882.721008	393.993347	868.541199	497.341187	433.910980	874.624573	438.915497	436.933807	916.501526	393.397522	483.893616	781.272705	76.696457	462.539032	733.308838	53.602371	512.964172	942.531799	40.134010	497.952606	889.551086	33.122383	422.911926	869.515747	501.920685	601.104004	807.901794	94.646339	640.748352	928.916565	38.829178	716.010620	889.364319	499.630219	563.660400	817.585876	80.115067	546.266479	932.448975	38.790916	459.087494	0.000000	0.000000	0.000000	0.000000	0.000000	0.000000	0.000000	0.000000	0.000000	0.000000	0.000000	0.000000	0.000000	0.000000	0.000000	0.000000	0.000000	0.000000	0.000000	0.000000	0.000000	0.000000	0.000000	0.000000	0.000000	0.000000	0.000000	0.000000	0.000000	0.000000	0.000000	0.000000	0.000000	0.000000	0.000000	0.000000	0.000000	0.000000	0.000000	0.000000	0.000000	0.000000	0.000000	0.000000	0.000000	0.000000	0.000000	0.000000	0.000000	0.000000	0.000000	0.000000	0.000000	0.000000	0.000000	0.000000	0.000000	0.000000	0.000000	0.000000	0.000000	0.000000	0.000000	0.000000	0.000000	0.000000	0.000000	0.000000	0.000000	0.000000	0.000000	0.000000	0.000000	0.000000	0.000000	0.000000	0.000000	0.000000	0.000000	0.000000	0.000000	
